<?xml version="1.0" encoding="UTF-8"?>
<svg version="1.1" xmlns="http://www.w3.org/2000/svg" width="160" height="160">
<path d="M0 0 C27.72 0 55.44 0 84 0 C84 19.8 84 39.6 84 60 C81.36 60 78.72 60 76 60 C76 62.64 76 65.28 76 68 C78.64 68 81.28 68 84 68 C84 69.32 84 70.64 84 72 C84.70495605 71.97381592 85.40991211 71.94763184 86.13623047 71.9206543 C89.38225312 71.81564374 92.62791702 71.75134714 95.875 71.6875 C96.98359375 71.64560547 98.0921875 71.60371094 99.234375 71.56054688 C107.69302389 71.43615498 114.51491856 72.90532504 120.90722656 78.74121094 C127.37160919 85.6428779 128.63708738 92.20383805 128.41015625 101.48828125 C127.50790937 109.21323313 123.97724404 114.84636268 118.0390625 119.74609375 C110.62730762 124.30389704 104.65997596 124.37812056 96.0625 124.1875 C94.32129883 124.16719727 94.32129883 124.16719727 92.54492188 124.14648438 C89.69612948 124.1113141 86.84831156 124.06209287 84 124 C84 125.32 84 126.64 84 128 C71.95132085 128.13947329 59.90283608 128.24586071 47.85351181 128.31087303 C42.25751835 128.34208753 36.6620802 128.38437929 31.06640625 128.45263672 C25.65876108 128.51818218 20.25164755 128.55378023 14.84363556 128.56926346 C12.78806447 128.58028688 10.73252006 128.6018124 8.67717743 128.63438034 C-3.75795339 128.8234529 -14.14199293 128.94257369 -23.97125244 120.25839233 C-25.57927201 118.6060426 -26.77684602 116.95218616 -28 115 C-28.40992188 114.37867188 -28.81984375 113.75734375 -29.2421875 113.1171875 C-33.09026139 106.13757762 -33.25054524 97.73954955 -32 90 C-29.59574479 82.4134279 -25.78349083 76.26794631 -19 72 C-18.401875 71.59007813 -17.80375 71.18015625 -17.1875 70.7578125 C-9.57423722 66.44561288 -0.44729107 67.67194986 8 68 C8 65.36 8 62.72 8 60 C5.36 60 2.72 60 0 60 C0 40.2 0 20.4 0 0 Z " fill="#C74343" transform="translate(32,14)"/>
<path d="M0 0 C27.72 0 55.44 0 84 0 C84 19.8 84 39.6 84 60 C81.36 60 78.72 60 76 60 C76 62.64 76 65.28 76 68 C53.56 68 31.12 68 8 68 C8 65.36 8 62.72 8 60 C5.36 60 2.72 60 0 60 C0 40.2 0 20.4 0 0 Z " fill="#F78F8F" transform="translate(32,14)"/>
<path d="M0 0 C26.4 0 52.8 0 80 0 C80 18.48 80 36.96 80 56 C53.6 56 27.2 56 0 56 C0 51.38 0 46.76 0 42 C5.94 42 11.88 42 18 42 C18 43.98 18 45.96 18 48 C35.82 48 53.64 48 72 48 C72 34.8 72 21.6 72 8 C54.18 8 36.36 8 18 8 C18 9.98 18 11.96 18 14 C12.06 14 6.12 14 0 14 C0 9.38 0 4.76 0 0 Z " fill="#F78F8F" transform="translate(34,84)"/>
<path d="M0 0 C16.5 0 33 0 50 0 C50 11.88 50 23.76 50 36 C33.5 36 17 36 0 36 C0 24.12 0 12.24 0 0 Z " fill="#C2E8FF" transform="translate(54,94)"/>
<path d="M0 0 C16.5 0 33 0 50 0 C50 11.88 50 23.76 50 36 C33.5 36 17 36 0 36 C0 24.12 0 12.24 0 0 Z " fill="#C2E8FF" transform="translate(54,26)"/>
<path d="M0 0 C27.31305903 0 27.31305903 0 34.55859375 6.18359375 C35.17863281 6.92738281 35.79867187 7.67117187 36.4375 8.4375 C37.07558594 9.17871094 37.71367187 9.91992188 38.37109375 10.68359375 C42.43516735 16.46295981 42.87741247 22.11923903 42 29 C39.75478188 36.19514086 35.47387078 42.0574351 29 46 C22 48 22 48 0 48 C0 32.16 0 16.32 0 0 Z " fill="#DFE9F0" transform="translate(116,88)"/>
<path d="M0 0 C17.82 0 35.64 0 54 0 C54 13.2 54 26.4 54 40 C36.18 40 18.36 40 0 40 C0 37.36 0 34.72 0 32 C-0.73114014 32.01571045 -1.46228027 32.0314209 -2.21557617 32.04760742 C-5.5394716 32.11010351 -8.8632432 32.14903752 -12.1875 32.1875 C-13.33798828 32.21263672 -14.48847656 32.23777344 -15.67382812 32.26367188 C-16.78564453 32.27333984 -17.89746094 32.28300781 -19.04296875 32.29296875 C-20.57473755 32.31653442 -20.57473755 32.31653442 -22.13745117 32.34057617 C-26.66994332 31.80131591 -30.09895026 29.48125969 -33 26 C-34.23534045 22.29397865 -34.45528745 19.90246386 -34 16 C-31.89797249 12.72730487 -29.511593 9.7557965 -26 8 C-24.0406396 7.91489795 -22.07837206 7.89282344 -20.1171875 7.90234375 C-18.95058594 7.90556641 -17.78398438 7.90878906 -16.58203125 7.91210938 C-15.35871094 7.92048828 -14.13539062 7.92886719 -12.875 7.9375 C-11.64394531 7.94201172 -10.41289063 7.94652344 -9.14453125 7.95117188 C-6.09630608 7.9629867 -3.04817686 7.97945972 0 8 C0 5.36 0 2.72 0 0 Z M2 2 C2 13.88 2 25.76 2 38 C18.5 38 35 38 52 38 C52 26.12 52 14.24 52 2 C35.5 2 19 2 2 2 Z " fill="#6C7E93" transform="translate(52,92)"/>
<path d="M0 0 C27.72 0 55.44 0 84 0 C84 19.8 84 39.6 84 60 C81.36 60 78.72 60 76 60 C76 62.64 76 65.28 76 68 C53.56 68 31.12 68 8 68 C8 65.36 8 62.72 8 60 C5.36 60 2.72 60 0 60 C0 40.2 0 20.4 0 0 Z M2 2 C2 20.48 2 38.96 2 58 C28.4 58 54.8 58 82 58 C82 39.52 82 21.04 82 2 C55.6 2 29.2 2 2 2 Z " fill="#C74343" transform="translate(32,14)"/>
<path d="M0 0 C0 4.62 0 9.24 0 14 C-1.216875 14.2475 -2.43375 14.495 -3.6875 14.75 C-8.35914911 15.92411358 -11.44865139 17.85766145 -14.3125 21.8125 C-15.6942291 26.20891078 -15.3962907 29.87717634 -13.875 34.1875 C-11.61609986 37.57585021 -9.59122139 39.09876515 -6 41 C-4.02 41.33 -2.04 41.66 0 42 C0 46.62 0 51.24 0 56 C-8.58779285 56.62456675 -14.63938686 54.16029767 -21.3125 48.75 C-27.02643775 43.42306201 -29.35955805 37.68530342 -30 30 C-30.66 30 -31.32 30 -32 30 C-32 28.68 -32 27.36 -32 26 C-31.34 26 -30.68 26 -30 26 C-29.9175 25.01 -29.835 24.02 -29.75 23 C-28.51931023 14.95193664 -24.54319994 9.84746525 -18.36328125 4.69921875 C-12.42093445 0.42662229 -7.20283868 -0.38586636 0 0 Z " fill="#DEE8F0" transform="translate(32,84)"/>
<path d="M0 0 C17.82 0 35.64 0 54 0 C54 13.2 54 26.4 54 40 C36.18 40 18.36 40 0 40 C0 38.02 0 36.04 0 34 C-3.3 34 -6.6 34 -10 34 C-10 24.76 -10 15.52 -10 6 C-6.7 6 -3.4 6 0 6 C0 4.02 0 2.04 0 0 Z M2 2 C2 13.88 2 25.76 2 38 C18.5 38 35 38 52 38 C52 26.12 52 14.24 52 2 C35.5 2 19 2 2 2 Z " fill="#788B9C" transform="translate(52,24)"/>
<path d="M0 0 C22.44 0 44.88 0 68 0 C68 2.64 68 5.28 68 8 C45.56 8 23.12 8 0 8 C0 5.36 0 2.72 0 0 Z " fill="#AB3434" transform="translate(40,74)"/>
<path d="M0 0 C4.08998175 1.80720124 6.66247347 4.19069751 9 8 C9.62819266 13.0255413 9.03320735 15.95572354 6 20 C3.24705395 23.21177039 0.96958591 23.86947882 -3.25 24.4375 C-8.1843364 23.86182742 -10.79803186 21.71753928 -14 18 C-15.23534045 14.29397865 -15.45528745 11.90246386 -15 8 C-10.91704021 1.64314568 -7.65816344 -0.51919752 0 0 Z " fill="#AAC9B6" transform="translate(137,100)"/>
<path d="M0 0 C3.3 0 6.6 0 10 0 C10 9.24 10 18.48 10 28 C6.7 28 3.4 28 0 28 C0 18.76 0 9.52 0 0 Z " fill="#66798F" transform="translate(42,30)"/>
<path d="M0 0 C3.95793295 -0.14700894 7.91515092 -0.2346378 11.875 -0.3125 C13.53789062 -0.3753418 13.53789062 -0.3753418 15.234375 -0.43945312 C23.69302389 -0.56384502 30.51491856 0.90532504 36.90722656 6.74121094 C43.37160919 13.6428779 44.63708738 20.20383805 44.41015625 29.48828125 C43.50790937 37.21323313 39.97724404 42.84636268 34.0390625 47.74609375 C26.62730762 52.30389704 20.65997596 52.37812056 12.0625 52.1875 C10.32129883 52.16719727 10.32129883 52.16719727 8.54492188 52.14648438 C5.69612948 52.1113141 2.84831156 52.06209287 0 52 C0 51.34 0 50.68 0 50 C0.62455078 49.98541748 1.24910156 49.97083496 1.89257812 49.95581055 C4.76229552 49.88066898 7.63093237 49.78423065 10.5 49.6875 C11.97339844 49.65366211 11.97339844 49.65366211 13.4765625 49.61914062 C22.02263579 49.3057846 29.03047694 47.77052834 35.45703125 41.78515625 C40.31298439 36.16700287 41.70121423 29.94595641 41.375 22.63671875 C40.34413107 15.38842161 36.59081555 11.14180301 31.1953125 6.4453125 C24.99811707 2.36530839 18.30098066 2.58709795 11.125 2.375 C10.05507812 2.33632812 8.98515625 2.29765625 7.8828125 2.2578125 C5.25537592 2.16397548 2.62793829 2.07828443 0 2 C0 1.34 0 0.68 0 0 Z " fill="#7B8E9E" transform="translate(116,86)"/>
<path d="M0 0 C1.21300781 0.01804687 2.42601563 0.03609375 3.67578125 0.0546875 C6.6596679 0.10167784 9.64192279 0.16736628 12.625 0.25 C12.625 0.91 12.625 1.57 12.625 2.25 C11.86880371 2.25410889 11.11260742 2.25821777 10.33349609 2.26245117 C6.88821716 2.29546205 3.44468877 2.36611697 0 2.4375 C-1.18980469 2.44330078 -2.37960938 2.44910156 -3.60546875 2.45507812 C-10.87541309 2.47095387 -10.87541309 2.47095387 -17.1484375 5.67578125 C-20.60849888 9.67609782 -20.73313608 11.96749286 -20.375 17.25 C-18.54810483 21.4807046 -16.44096486 23.19956785 -12.375 25.25 C-9.48466551 25.74705774 -9.48466551 25.74705774 -6.41796875 25.76171875 C-5.30615234 25.79716797 -4.19433594 25.83261719 -3.04882812 25.86914062 C-1.89833984 25.89169922 -0.74785156 25.91425781 0.4375 25.9375 C1.60732422 25.97166016 2.77714844 26.00582031 3.98242188 26.04101562 C6.86318554 26.12332316 9.74365138 26.19253178 12.625 26.25 C12.625 26.91 12.625 27.57 12.625 28.25 C8.41690116 28.36656783 4.20922004 28.43737611 0 28.5 C-1.78470703 28.55027344 -1.78470703 28.55027344 -3.60546875 28.6015625 C-14.55378393 28.72389004 -14.55378393 28.72389004 -19.375 24.25 C-22.27126035 20.95425546 -23.27160298 18.34600845 -23.6875 13.9375 C-23.22492363 8.47909881 -20.98988273 5.75849687 -17.0625 2.08984375 C-12.04402533 -1.15013508 -5.72400531 -0.16123959 0 0 Z " fill="#3C4653" transform="translate(39.375,97.75)"/>
<path d="M0 0 C0.66 0 1.32 0 2 0 C2.20753906 0.7734375 2.41507812 1.546875 2.62890625 2.34375 C5.21786887 11.0963935 8.57235255 17.78345205 16.75 22.375 C21.59682515 24.53126473 26.77839473 25.27051103 32 26 C32 26.66 32 27.32 32 28 C23.4074524 29.0265433 17.18510157 26.69315883 10 22 C5.00388872 17.80326652 1.94883137 12.18249951 0 6 C-0.25 2.4375 -0.25 2.4375 0 0 Z " fill="#7A8C9D" transform="translate(0,114)"/>
<path d="M0 0 C0 0.66 0 1.32 0 2 C-1.051875 2.14695312 -1.051875 2.14695312 -2.125 2.296875 C-11.53959743 3.78069742 -18.25422579 6.06803482 -24.45703125 13.5625 C-27.27239685 18.0100649 -28.64440213 22.94808248 -30 28 C-30.66 28 -31.32 28 -32 28 C-31.72829247 19.57706649 -29.24049591 13.08598391 -23.0703125 7.140625 C-15.71994219 1.36329113 -9.24923114 -0.50247332 0 0 Z " fill="#7A8C9D" transform="translate(32,82)"/>
<path d="M0 0 C3.3 0 6.6 0 10 0 C10 0.66 10 1.32 10 2 C7.36 2 4.72 2 2 2 C2 9.92 2 17.84 2 26 C4.64 26 7.28 26 10 26 C10 26.66 10 27.32 10 28 C6.7 28 3.4 28 0 28 C0 18.76 0 9.52 0 0 Z " fill="#36404D" transform="translate(42,30)"/>
<path d="M0 0 C1.32 0 2.64 0 4 0 C4 1.32 4 2.64 4 4 C5.32 4 6.64 4 8 4 C8 5.32 8 6.64 8 8 C6.68 8 5.36 8 4 8 C4 9.32 4 10.64 4 12 C2.68 12 1.36 12 0 12 C0 10.68 0 9.36 0 8 C-1.32 8 -2.64 8 -4 8 C-4 6.68 -4 5.36 -4 4 C-2.68 4 -1.36 4 0 4 C0 2.68 0 1.36 0 0 Z " fill="#FFFFFF" transform="translate(28,106)"/>
<path d="M0 0 C0.33 1.32 0.66 2.64 1 4 C1.99 4 2.98 4 4 4 C4 5.32 4 6.64 4 8 C2.02 8 0.04 8 -2 8 C-2 6.68 -2 5.36 -2 4 C-1.34 4 -0.68 4 0 4 C0 2.68 0 1.36 0 0 Z " fill="#BADCC0" transform="translate(2,106)"/>
</svg>
